<svg id="Capa_1" enable-background="new 0 0 510 510" height="512" viewBox="0 0 510 510" width="512" xmlns="http://www.w3.org/2000/svg"><g><path d="m119 15h272v480h-272z" fill="#f1f6ff"/><path d="m255 15h136v480h-136z" fill="#dfe5f2"/><path d="m104 0v510h302v-510zm272 480h-242v-450h242z" fill="#a05f4b"/><path d="m406 0v510h-151v-30h121v-450h-121v-30z" fill="#724435"/><path d="m207 416h96v30h-96z" fill="#c47e4e"/><path d="m255 416h48v30h-48z" fill="#a05f4b"/><path d="m148.55 380.482c-22.525-3.715 30.522 5.104 0 0z" fill="#a5e887"/><path d="m510 90.29v270.42c-26.46-4.417-157.691-26.273-158.39-26.4-.105.052-66.063 16.524-192 48-13.647-2.247-144.254-24.045-159.61-26.6v-270.42c52.476 8.743 158.184 26.362 158.39 26.4 18.769-4.697 191.792-47.929 192-48 2.519.425 159.504 26.582 159.61 26.6z" fill="#a5e887"/><path d="m510 90.29v270.42c-26.46-4.417-157.691-26.273-158.39-26.4-.109.054-91.18 22.802-96.61 24.16v-270.93c.27-.067 95.287-23.815 95.39-23.85 2.519.425 159.504 26.582 159.61 26.6z" fill="#00cc76"/><path d="m442.33 214.47-18.39-73.54 64.16-54.29c-13.43-2.24-26.22-4.37-38.8-6.47l-83.3 70.49v-84.37c-5.1-.85-10.29-1.71-15.61-2.6-3.21.8-8.15 2.04-14.39 3.6v184.04l-66-43v-124.54c-.755.189-29.524 7.381-30 7.5v116.68l-66 55v-155.18c-7 1.75-12.4 3.1-15.61 3.9-3.23-.54-8.18-1.36-14.39-2.39v74.96l-57.64 51.24-86.36-67.17v38l87.64 68.17 56.36-50.1v155.31c5.68.95 7.69 1.29 15.61 2.6 3.24-.81 8.16-2.04 14.39-3.6v-76.68l81-67.51c.171-.14-3.748-2.603 81 52.61v51.09c5.56-1.4 10.8-2.71 15.61-3.91 3.23.54 8.18 1.36 14.39 2.39v-11.06l72.41-80.45 71.59-8.95v-30.23zm-76.33 66.33v-90.84l32.42-27.43 16.09 64.37z" fill="#00cc76"/><path d="m442.33 214.47-18.39-73.54 64.16-54.29c-13.43-2.24-26.22-4.37-38.8-6.47l-83.3 70.49v-84.37c-5.1-.85-10.29-1.71-15.61-2.6-3.21.8-8.15 2.04-14.39 3.6v184.04l-66-43v-124.54c-4.96 1.24-9.98 2.49-15 3.75v146.98c.171-.14-3.748-2.603 81 52.61v51.09c5.56-1.4 10.8-2.71 15.61-3.91 3.23.54 8.18 1.36 14.39 2.39v-11.06l72.41-80.45 71.59-8.95v-30.23zm-76.33 66.33v-90.84l32.42-27.43 16.09 64.37z" fill="#00aa95"/></g></svg>